<?xml version="1.0" encoding="utf-8"?>
<!-- Generator: Adobe Illustrator 26.2.1, SVG Export Plug-In . SVG Version: 6.00 Build 0)  -->
<svg version="1.1" id="Layer_1" xmlns="http://www.w3.org/2000/svg" xmlns:xlink="http://www.w3.org/1999/xlink" x="0px" y="0px"
	 viewBox="0 0 1437 1415" style="enable-background:new 0 0 1437 1415;" xml:space="preserve">
<style type="text/css">
	.st0{fill:url(#SVGID_1_);}
	.st1{fill:url(#SVGID_00000039839796125025399680000015458600319137874054_);}
	.st2{fill:url(#SVGID_00000054975569769566235920000017564941224162440613_);}
	.st3{fill:url(#SVGID_00000091695582369055071270000010774299951607104159_);}
	.st4{fill:url(#SVGID_00000123407653969044058730000001074540392736112572_);}
	.st5{fill:url(#SVGID_00000039124103584865691610000003176445485611827893_);}
	.st6{fill:url(#SVGID_00000115516349690698305530000010436769375297321377_);}
	.st7{opacity:0.39;}
</style>
<linearGradient id="SVGID_1_" gradientUnits="userSpaceOnUse" x1="-2241" y1="-58" x2="-1932" y2="-58">
	<stop  offset="0" style="stop-color:#00FFAA"/>
	<stop  offset="1" style="stop-color:#00CFFF"/>
</linearGradient>
<rect x="-2241" y="-199" class="st0" width="309" height="282"/>
<radialGradient id="SVGID_00000012430829819394759350000014381398145488200612_" cx="-1849.5764" cy="380.9401" r="365.1872" gradientUnits="userSpaceOnUse">
	<stop  offset="0" style="stop-color:#FF0074"/>
	<stop  offset="1" style="stop-color:#FF0019"/>
</radialGradient>
<rect x="-2192" y="326" style="fill:url(#SVGID_00000012430829819394759350000014381398145488200612_);" width="381" height="345"/>
<linearGradient id="SVGID_00000116202555363708641070000017563155700800769726_" gradientUnits="userSpaceOnUse" x1="587.1792" y1="1352.4525" x2="3094.5037" y2="1751.6509">
	<stop  offset="5.967124e-07" style="stop-color:#FFEC00"/>
	<stop  offset="1" style="stop-color:#38FF00"/>
</linearGradient>
<rect x="-2241" y="760" style="fill:url(#SVGID_00000116202555363708641070000017563155700800769726_);" width="381" height="345"/>
<g>
	<g>
		<image style="overflow:visible;" width="1094" height="1093" xlink:href="7F4D827.png"  transform="matrix(1 0 0 1 356 343)">
		</image>
		<g>
			
				<radialGradient id="SVGID_00000142862391446328962750000003872340458389883266_" cx="1107.7616" cy="698.2187" r="799.1528" gradientUnits="userSpaceOnUse">
				<stop  offset="0" style="stop-color:#FF0074"/>
				<stop  offset="1" style="stop-color:#FF0019"/>
			</radialGradient>
			<circle style="fill:url(#SVGID_00000142862391446328962750000003872340458389883266_);" cx="902.9" cy="889.8" r="396.1"/>
		</g>
	</g>
	<g>
		<image style="overflow:visible;" width="1093" height="1093" xlink:href="7F4D825.png"  transform="matrix(1 0 0 1 -13 -20)">
		</image>
		<g>
			
				<radialGradient id="SVGID_00000152968453407606055310000015392368091342227076_" cx="738.2261" cy="334.6418" r="799.1528" gradientUnits="userSpaceOnUse">
				<stop  offset="0" style="stop-color:#FF0074"/>
				<stop  offset="1" style="stop-color:#FF0019"/>
			</radialGradient>
			<circle style="fill:url(#SVGID_00000152968453407606055310000015392368091342227076_);" cx="533.4" cy="526.2" r="396.1"/>
		</g>
	</g>
	<g>
		<image style="overflow:visible;" width="1093" height="1093" xlink:href="7F4D82B.png"  transform="matrix(1 0 0 1 356 343)">
		</image>
		<g>
			
				<radialGradient id="SVGID_00000148643437838958257140000018416311665644085683_" cx="1218.6461" cy="619.4442" r="837.2647" gradientUnits="userSpaceOnUse">
				<stop  offset="0" style="stop-color:#00FFAA"/>
				<stop  offset="1" style="stop-color:#00CFFF"/>
			</radialGradient>
			<circle style="fill:url(#SVGID_00000148643437838958257140000018416311665644085683_);" cx="902.7" cy="889.4" r="396.1"/>
		</g>
	</g>
	
		<radialGradient id="SVGID_00000122706093256391782280000015598215368848937860_" cx="886.6888" cy="561.6133" r="453.3708" gradientUnits="userSpaceOnUse">
		<stop  offset="5.967124e-07" style="stop-color:#FFEC00"/>
		<stop  offset="1" style="stop-color:#38FF00"/>
	</radialGradient>
	<path style="fill:url(#SVGID_00000122706093256391782280000015598215368848937860_);" d="M506.6,889.4c0,10.8,0.4,21.5,1.3,32.2
		c8.4,0.5,16.9,0.8,25.5,0.8c218.8,0,396.1-177.3,396.1-396.1c0-10.8-0.4-21.5-1.3-32.2c-8.4-0.5-16.9-0.8-25.5-0.8
		C684,493.3,506.6,670.6,506.6,889.4z"/>
	<g>
		<g>
			<image style="overflow:visible;" width="645" height="214" xlink:href="7F4D82D.png"  transform="matrix(1 0 0 1 591 452)">
			</image>
		</g>
		<g>
			<image style="overflow:visible;" width="212" height="645" xlink:href="7F4D82F.png"  transform="matrix(1 0 0 1 466 575)">
			</image>
		</g>
	</g>
	<g>
		<g>
			<image style="overflow:visible;" width="645" height="214" xlink:href="7F4D82C.png"  transform="matrix(1 0 0 1 196 751)">
			</image>
		</g>
		<g>
			<image style="overflow:visible;" width="212" height="646" xlink:href="7F4D824.png"  transform="matrix(1 0 0 1 754 196)">
			</image>
		</g>
	</g>
	<g>
		<g>
			<g class="st7">
				<g>
					<image style="overflow:visible;" width="103" height="189" xlink:href="7F4D826.png"  transform="matrix(1 0 0 1 875 399)">
					</image>
				</g>
				<g>
					<image style="overflow:visible;" width="189" height="102" xlink:href="7F4D822.png"  transform="matrix(1 0 0 1 832 442)">
					</image>
				</g>
			</g>
			<g>
				<g>
					<image style="overflow:visible;" width="87" height="128" xlink:href="26633DA4.png"  transform="matrix(1 0 0 1 883 429)">
					</image>
				</g>
				<g>
					<image style="overflow:visible;" width="129" height="87" xlink:href="26633DA3.png"  transform="matrix(1 0 0 1 862 450)">
					</image>
				</g>
			</g>
			<g>
				<g>
					<image style="overflow:visible;" width="80" height="101" xlink:href="26633DBC.png"  transform="matrix(1 0 0 1 887 443)">
					</image>
				</g>
				<g>
					<image style="overflow:visible;" width="101" height="80" xlink:href="26633DBF.png"  transform="matrix(1 0 0 1 876 453)">
					</image>
				</g>
			</g>
		</g>
		<g>
			<g class="st7">
				<g>
					<image style="overflow:visible;" width="103" height="189" xlink:href="26633DBD.png"  transform="matrix(1 0 0 1 875 399)">
					</image>
				</g>
				<g>
					<image style="overflow:visible;" width="189" height="102" xlink:href="26633DA2.png"  transform="matrix(1 0 0 1 832 442)">
					</image>
				</g>
			</g>
			<g>
				<g>
					<image style="overflow:visible;" width="87" height="128" xlink:href="26633DA5.png"  transform="matrix(1 0 0 1 883 429)">
					</image>
				</g>
				<g>
					<image style="overflow:visible;" width="129" height="87" xlink:href="26633DA7.png"  transform="matrix(1 0 0 1 862 450)">
					</image>
				</g>
			</g>
			<g>
				<g>
					<image style="overflow:visible;" width="80" height="101" xlink:href="26633DA0.png"  transform="matrix(1 0 0 1 887 443)">
					</image>
				</g>
				<g>
					<image style="overflow:visible;" width="101" height="80" xlink:href="26633DA1.png"  transform="matrix(1 0 0 1 876 453)">
					</image>
				</g>
			</g>
		</g>
	</g>
	<g>
		<g>
			<g class="st7">
				<g>
					<image style="overflow:visible;" width="103" height="188" xlink:href="26633DC7.png"  transform="matrix(1 0 0 1 462 828)">
					</image>
				</g>
				<g>
					<image style="overflow:visible;" width="189" height="102" xlink:href="26633DC1.png"  transform="matrix(1 0 0 1 419 871)">
					</image>
				</g>
			</g>
			<g>
				<g>
					<image style="overflow:visible;" width="87" height="128" xlink:href="26633DC3.png"  transform="matrix(1 0 0 1 470 858)">
					</image>
				</g>
				<g>
					<image style="overflow:visible;" width="129" height="88" xlink:href="26633DCE.png"  transform="matrix(1 0 0 1 449 878)">
					</image>
				</g>
			</g>
			<g>
				<g>
					<image style="overflow:visible;" width="80" height="102" xlink:href="26633DCF.png"  transform="matrix(1 0 0 1 474 871)">
					</image>
				</g>
				<g>
					<image style="overflow:visible;" width="101" height="80" xlink:href="26633DC2.png"  transform="matrix(1 0 0 1 463 882)">
					</image>
				</g>
			</g>
		</g>
		<g>
			<g class="st7">
				<g>
					<image style="overflow:visible;" width="103" height="188" xlink:href="26633DC5.png"  transform="matrix(1 0 0 1 462 828)">
					</image>
				</g>
				<g>
					<image style="overflow:visible;" width="189" height="102" xlink:href="26633DC6.png"  transform="matrix(1 0 0 1 419 871)">
					</image>
				</g>
			</g>
			<g>
				<g>
					<image style="overflow:visible;" width="87" height="128" xlink:href="26633DC4.png"  transform="matrix(1 0 0 1 470 858)">
					</image>
				</g>
				<g>
					<image style="overflow:visible;" width="129" height="88" xlink:href="26633DFC.png"  transform="matrix(1 0 0 1 449 878)">
					</image>
				</g>
			</g>
			<g>
				<g>
					<image style="overflow:visible;" width="80" height="102" xlink:href="26633DE6.png"  transform="matrix(1 0 0 1 474 871)">
					</image>
				</g>
				<g>
					<image style="overflow:visible;" width="101" height="80" xlink:href="26633DD9.png"  transform="matrix(1 0 0 1 463 882)">
					</image>
				</g>
			</g>
		</g>
	</g>
</g>
</svg>
