<?xml version="1.0" encoding="utf-8"?>
<!-- Generator: Adobe Illustrator 26.2.1, SVG Export Plug-In . SVG Version: 6.00 Build 0)  -->
<svg version="1.1" id="a" xmlns="http://www.w3.org/2000/svg" xmlns:xlink="http://www.w3.org/1999/xlink" x="0px" y="0px"
	 viewBox="0 0 2521 666" style="enable-background:new 0 0 2521 666;" xml:space="preserve">
<style type="text/css">
	.st0{enable-background:new    ;}
	.st1{fill:#FFFFFF;}
</style>
<g class="st0">
	<path class="st1" d="M203.9,133.7c0-18.3-2.6-32.2-7.9-41.9c-5.3-9.6-16.6-14.4-33.9-14.4c-15.9,0-26.5,4.6-31.8,13.7
		c-5.3,9.1-7.9,23.3-7.9,42.6c0,13,0,29.2,0,48.7s-0.1,42.9-0.4,70.4c-0.2,27.4-0.4,59.4-0.4,96c0,36.6,0,78.2,0,124.8
		c0,14.4-0.1,28.1-0.4,41.1c-0.2,13,0.6,24.3,2.5,33.9c1.9,9.6,5.6,17.2,11.2,22.7c5.5,5.5,14.5,8.3,27.1,8.3
		c15.4,0,26.2-3.2,32.5-9.7c6.2-6.5,9.4-19.6,9.4-39.3v-78.7h54.8V532c0,8.2-1.9,16.6-5.8,25.3c-3.9,8.7-9.7,16.6-17.7,23.8
		c-7.9,7.2-17.8,13.1-29.6,17.7c-11.8,4.6-25.6,6.9-41.5,6.9c-22.6,0-40.9-4.1-54.8-12.3c-14-8.2-24.8-19.7-32.5-34.6
		c-4.8-9.6-7.6-22.2-8.3-37.9c-0.7-15.6-1.1-32.8-1.1-51.6V238.3c0-9.6-0.1-20.8-0.4-33.6c-0.2-12.7-0.4-25.3-0.4-37.5
		c0-12.3,0.4-23.6,1.1-33.9c0.7-10.3,1.8-18.2,3.2-23.5c5.8-19.2,16.7-33.8,32.8-43.7c16.1-9.9,35.5-14.8,58.1-14.8
		c16.3,0,30.7,2.4,42.9,7.2c12.3,4.8,22.4,11.1,30.3,18.8c7.9,7.7,13.8,16.5,17.7,26.3c3.8,9.9,5.8,19.8,5.8,29.9v57.7h-54.8V133.7z
		"/>
	<path class="st1" d="M591.4,114.9c1.4,5.3,2.6,12.8,3.6,22.4c1,9.6,1.7,20.3,2.2,32.1c0.5,11.8,0.8,23.8,1.1,36.1
		c0.2,12.3,0.4,23.2,0.4,32.8v264.8c0,12-0.4,23-1.1,32.8c-0.7,9.9-2.8,18.2-6.1,24.9c-7.7,14.9-19.1,26.1-34.3,33.6
		c-15.2,7.5-33.1,11.2-53.8,11.2c-20.2,0-37.9-3.7-53-11.2c-15.2-7.5-26.6-18.6-34.3-33.6c-3.4-6.7-5.4-15-6.1-24.9
		c-0.7-9.9-1.1-20.8-1.1-32.8V238.3c0-9.6,0.1-20.6,0.4-32.8c0.2-12.3,0.6-24.3,1.1-36.1c0.5-11.8,1.2-22.5,2.2-32.1
		c1-9.6,2.2-17.1,3.6-22.4c5.8-19.2,16.2-34.6,31.4-46.2c15.2-11.5,34-17.3,56.6-17.3c21.6,0,40.2,5.8,55.6,17.3
		C575.1,80.3,585.6,95.7,591.4,114.9z M463,140.9c0,61.6-0.1,123.3-0.4,185.1c-0.2,61.8-0.4,125-0.4,189.4c0,9.6,0.4,18.3,1.1,26
		c0.7,7.7,2.5,14.4,5.4,20.2c2.9,5.8,7.1,10.2,12.6,13.3c5.5,3.1,12.9,4.7,22,4.7h0.7c10.1,0,17.9-1.8,23.5-5.4
		c5.5-3.6,9.6-9.5,12.3-17.7c2.6-8.2,4.1-19.1,4.3-32.8c0.2-13.7,0.4-30.4,0.4-50.2V143c0-19.7-2.2-35.6-6.5-47.6
		c-4.3-12-15.6-18-33.9-18h-0.7c-9.1,0-16.4,1.6-21.6,4.7c-5.3,3.1-9.4,7.5-12.3,13c-2.9,5.5-4.7,12.3-5.4,20.2S463,131.7,463,140.9
		z"/>
	<path class="st1" d="M801.4,58.6l59.9,373.1l48.4-373.1h28.9l-71.4,539.1H826L748,58.6H801.4z"/>
	<path class="st1" d="M1199.8,57.9l67.1,540.5h-50.5l-12.3-99.6h-86.6l-14.4,99.6h-29.6l59.9-540.5H1199.8z M1155,138.7l-36.1,332
		h80.8l-39.7-332H1155z"/>
	<path class="st1" d="M1391.7,58.6h56.3l0.7,510.2h88v28.9h-144.3L1391.7,58.6z"/>
	<path class="st1" d="M1660.9,58.6h145.8v28.1h-89.5V296h83v27.4h-83l0.7,246.8h88v27.4h-144.3L1660.9,58.6z"/>
	<path class="st1" d="M2134.3,58.6v539.1h-27.4l-137.1-386.8v386.8h-28.1V58.6h28.1l136.4,383.2V58.6H2134.3z"/>
	<path class="st1" d="M2270.7,58.6h192v28.1h-68.6v510.9h-55.6V86.8h-67.8V58.6z"/>
</g>
</svg>
