<?xml version="1.0" encoding="utf-8"?>
<!-- Generator: Adobe Illustrator 26.2.1, SVG Export Plug-In . SVG Version: 6.00 Build 0)  -->
<svg version="1.1" id="Layer_1" xmlns="http://www.w3.org/2000/svg" xmlns:xlink="http://www.w3.org/1999/xlink" x="0px" y="0px"
	 viewBox="0 0 3019 2598" style="enable-background:new 0 0 3019 2598;" xml:space="preserve">
<style type="text/css">
	.st0{fill:url(#SVGID_1_);}
	.st1{fill:url(#SVGID_00000134252157603928889900000014067683563245335482_);}
	.st2{fill:url(#SVGID_00000166676275534355394790000009831351362759944377_);}
	.st3{clip-path:url(#SVGID_00000095329338057503160400000015994406075028125575_);}
	.st4{clip-path:url(#SVGID_00000033333679219316772840000006993709657649192089_);}
	.st5{clip-path:url(#SVGID_00000017489346276968462790000002666255873550929799_);}
	.st6{clip-path:url(#SVGID_00000176004625931778800760000010768996260343208591_);}
	.st7{opacity:0.39;}
	.st8{clip-path:url(#SVGID_00000146496028297690868840000009023232724681779587_);}
	.st9{clip-path:url(#SVGID_00000062882136817124989520000016246707414149660064_);}
	.st10{clip-path:url(#SVGID_00000107560086578221798680000015287371559235180982_);}
	.st11{clip-path:url(#SVGID_00000096037608384803107880000010245963064602734499_);}
	.st12{clip-path:url(#SVGID_00000159452451911077493170000001656736052078611851_);}
	.st13{clip-path:url(#SVGID_00000077287339876148556030000015073933596218689668_);}
	.st14{clip-path:url(#SVGID_00000046329188397577655410000016040610677834041018_);}
	.st15{clip-path:url(#SVGID_00000152246192478290532940000003572859291873518725_);}
	.st16{clip-path:url(#SVGID_00000137824529987625989330000018174826734276550030_);}
	.st17{clip-path:url(#SVGID_00000173130134790721471380000006720396300681726357_);}
	.st18{clip-path:url(#SVGID_00000084489478773751113780000013402587504739539329_);}
	.st19{clip-path:url(#SVGID_00000165217003428886205810000003105535413563290040_);}
	.st20{clip-path:url(#SVGID_00000109737522629294911630000016261054320172422024_);}
	.st21{clip-path:url(#SVGID_00000057840962868288362380000003763951435808867222_);}
	.st22{clip-path:url(#SVGID_00000177468963694166262880000008087325118548271268_);}
	.st23{clip-path:url(#SVGID_00000064324274773730013960000013297159386370281402_);}
	.st24{clip-path:url(#SVGID_00000017497653849131330060000013620160980751339402_);}
	.st25{clip-path:url(#SVGID_00000067950058861488393920000008103375069567625893_);}
	.st26{clip-path:url(#SVGID_00000100346244143368238430000002572844964504695947_);}
	.st27{clip-path:url(#SVGID_00000073691201737292208880000002935730331329367425_);}
	.st28{clip-path:url(#SVGID_00000018235547576078970370000008282625898398336131_);}
	.st29{clip-path:url(#SVGID_00000077292660817529125690000010219306068509913769_);}
	.st30{clip-path:url(#SVGID_00000106838070170595620850000005797882773238843803_);}
	.st31{clip-path:url(#SVGID_00000102534330862419588380000008775878018770919353_);}
	.st32{enable-background:new    ;}
	.st33{fill:#FFFFFF;}
</style>
<g>
	
		<radialGradient id="SVGID_1_" cx="1629.23" cy="2150.3599" r="799.15" gradientTransform="matrix(1 0 0 -1 0 2600)" gradientUnits="userSpaceOnUse">
		<stop  offset="0" style="stop-color:#FF0074"/>
		<stop  offset="1" style="stop-color:#FF0019"/>
	</radialGradient>
	<circle class="st0" cx="1424.4" cy="641.2" r="396.1"/>
	
		<radialGradient id="SVGID_00000101814142279274435920000000615247890839420075_" cx="2109.6499" cy="1865.5601" r="837.26" gradientTransform="matrix(1 0 0 -1 0 2600)" gradientUnits="userSpaceOnUse">
		<stop  offset="0" style="stop-color:#00FFAA"/>
		<stop  offset="1" style="stop-color:#00CFFF"/>
	</radialGradient>
	<circle style="fill:url(#SVGID_00000101814142279274435920000000615247890839420075_);" cx="1793.8" cy="1004.4" r="396.1"/>
	
		<radialGradient id="SVGID_00000171711353878869808980000001966777146835295387_" cx="1777.6899" cy="1923.39" r="453.37" gradientTransform="matrix(1 0 0 -1 0 2600)" gradientUnits="userSpaceOnUse">
		<stop  offset="0" style="stop-color:#FFEC00"/>
		<stop  offset="1" style="stop-color:#38FF00"/>
	</radialGradient>
	<path style="fill:url(#SVGID_00000171711353878869808980000001966777146835295387_);" d="M1397.6,1004.4c0,10.8,0.4,21.6,1.3,32.2
		c8.4,0.5,16.9,0.8,25.5,0.8c218.8,0,396.1-177.3,396.1-396.1c0-10.8-0.4-21.5-1.3-32.2c-8.4-0.5-16.9-0.8-25.5-0.8
		C1575,608.3,1397.6,785.6,1397.6,1004.4L1397.6,1004.4z"/>
	<g>
		<g>
			<g>
				<defs>
					<polygon id="SVGID_00000018224535761312348680000018367515624831780238_" points="1483,568 1484,568 1483,569 					"/>
				</defs>
				<defs>
					<polygon id="SVGID_00000161614272033966922220000003897663440004432063_" points="1481,566 1480,566 1481,565 					"/>
				</defs>
				<clipPath id="SVGID_00000155834962081573402030000001484232190178970263_">
					<use xlink:href="#SVGID_00000018224535761312348680000018367515624831780238_"  style="overflow:visible;"/>
				</clipPath>
				
					<clipPath id="SVGID_00000011718705224843571400000003304728222208220082_" style="clip-path:url(#SVGID_00000155834962081573402030000001484232190178970263_);">
					<use xlink:href="#SVGID_00000161614272033966922220000003897663440004432063_"  style="overflow:visible;"/>
				</clipPath>
				<g style="clip-path:url(#SVGID_00000011718705224843571400000003304728222208220082_);enable-background:new    ;">
					
						<image style="overflow:visible;" width="645" height="214" xlink:href="93947578.png"  transform="matrix(1 0 0 1 1159.5 460)">
					</image>
				</g>
			</g>
		</g>
		<g>
			<g>
				<defs>
					<polygon id="SVGID_00000050645392216185788000000010351391364995602859_" points="1358,691 1359,691 1358,692 					"/>
				</defs>
				<defs>
					<polygon id="SVGID_00000090294725220936612120000015974743118596535683_" points="1356,689 1355,689 1356,688 					"/>
				</defs>
				<clipPath id="SVGID_00000087402214470574711680000000284803893221442961_">
					<use xlink:href="#SVGID_00000050645392216185788000000010351391364995602859_"  style="overflow:visible;"/>
				</clipPath>
				
					<clipPath id="SVGID_00000028296885451005284980000003595387198591585958_" style="clip-path:url(#SVGID_00000087402214470574711680000000284803893221442961_);">
					<use xlink:href="#SVGID_00000090294725220936612120000015974743118596535683_"  style="overflow:visible;"/>
				</clipPath>
				<g style="clip-path:url(#SVGID_00000028296885451005284980000003595387198591585958_);enable-background:new    ;">
					
						<image style="overflow:visible;" width="212" height="645" xlink:href="93947579.png"  transform="matrix(1 0 0 1 1251 367.5)">
					</image>
				</g>
			</g>
		</g>
	</g>
	<g>
		<g>
			<g>
				<defs>
					<polygon id="SVGID_00000093135563889547322650000007085843491122397109_" points="1088,867 1089,867 1088,868 					"/>
				</defs>
				<defs>
					<polygon id="SVGID_00000183932731176568576510000015376977876796807086_" points="1086,865 1085,865 1086,864 					"/>
				</defs>
				<clipPath id="SVGID_00000107570759100883994610000016639829501591830440_">
					<use xlink:href="#SVGID_00000093135563889547322650000007085843491122397109_"  style="overflow:visible;"/>
				</clipPath>
				
					<clipPath id="SVGID_00000016761395685814363850000017966788717429935787_" style="clip-path:url(#SVGID_00000107570759100883994610000016639829501591830440_);">
					<use xlink:href="#SVGID_00000183932731176568576510000015376977876796807086_"  style="overflow:visible;"/>
				</clipPath>
				<g style="clip-path:url(#SVGID_00000016761395685814363850000017966788717429935787_);enable-background:new    ;">
					<image style="overflow:visible;" width="645" height="214" xlink:href="9394757F.png"  transform="matrix(1 0 0 1 764.5 759)">
					</image>
				</g>
			</g>
		</g>
		<g>
			<g>
				<defs>
					<polygon id="SVGID_00000116232247020941307510000009490798117524447400_" points="1646,312 1647,312 1646,313 					"/>
				</defs>
				<defs>
					<polygon id="SVGID_00000077289960755273466190000010509565983892382850_" points="1644,310 1643,310 1644,309 					"/>
				</defs>
				<clipPath id="SVGID_00000097476271144780921180000015598738083855671984_">
					<use xlink:href="#SVGID_00000116232247020941307510000009490798117524447400_"  style="overflow:visible;"/>
				</clipPath>
				
					<clipPath id="SVGID_00000053527405198481938600000009823494188663558299_" style="clip-path:url(#SVGID_00000097476271144780921180000015598738083855671984_);">
					<use xlink:href="#SVGID_00000077289960755273466190000010509565983892382850_"  style="overflow:visible;"/>
				</clipPath>
				<g style="clip-path:url(#SVGID_00000053527405198481938600000009823494188663558299_);enable-background:new    ;">
					<image style="overflow:visible;" width="212" height="646" xlink:href="9394757A.png"  transform="matrix(1 0 0 1 1539 -12)">
					</image>
				</g>
			</g>
		</g>
	</g>
	<g>
		<g>
			<g class="st7">
				<g>
					<g>
						<defs>
							<polygon id="SVGID_00000068643417358094651350000005212433878861372573_" points="1767,515 1768,515 1767,516 							"/>
						</defs>
						<defs>
							<polygon id="SVGID_00000179628125154595948450000004163720495145673893_" points="1765,513 1764,513 1765,512 							"/>
						</defs>
						<clipPath id="SVGID_00000148647768598184776350000002250090720989129395_">
							<use xlink:href="#SVGID_00000068643417358094651350000005212433878861372573_"  style="overflow:visible;"/>
						</clipPath>
						
							<clipPath id="SVGID_00000160149723716508702170000016974584958291053704_" style="clip-path:url(#SVGID_00000148647768598184776350000002250090720989129395_);">
							<use xlink:href="#SVGID_00000179628125154595948450000004163720495145673893_"  style="overflow:visible;"/>
						</clipPath>
						<g style="clip-path:url(#SVGID_00000160149723716508702170000016974584958291053704_);enable-background:new    ;">
							
								<image style="overflow:visible;" width="103" height="189" id="m" xlink:href="9394757B.png"  transform="matrix(1 0 0 1 1714.5 419.5)">
							</image>
						</g>
					</g>
				</g>
				<g>
					<g>
						<defs>
							<polygon id="SVGID_00000073680845549686439380000010117428499356432829_" points="1724,558 1725,558 1724,559 							"/>
						</defs>
						<defs>
							<polygon id="SVGID_00000006669886926973061890000018172396408037805717_" points="1722,556 1721,556 1722,555 							"/>
						</defs>
						<clipPath id="SVGID_00000119096623741775865670000015965130277518847649_">
							<use xlink:href="#SVGID_00000073680845549686439380000010117428499356432829_"  style="overflow:visible;"/>
						</clipPath>
						
							<clipPath id="SVGID_00000170236436485093958840000005072818341246324123_" style="clip-path:url(#SVGID_00000119096623741775865670000015965130277518847649_);">
							<use xlink:href="#SVGID_00000006669886926973061890000018172396408037805717_"  style="overflow:visible;"/>
						</clipPath>
						<g style="clip-path:url(#SVGID_00000170236436485093958840000005072818341246324123_);enable-background:new    ;">
							
								<image style="overflow:visible;" width="189" height="102" id="j" xlink:href="93947576.png"  transform="matrix(1 0 0 1 1628.5 506)">
							</image>
						</g>
					</g>
				</g>
			</g>
			<g>
				<g>
					<g>
						<defs>
							<polygon id="SVGID_00000173153240401510800950000009281806019230876092_" points="1775,545 1776,545 1775,546 							"/>
						</defs>
						<defs>
							<polygon id="SVGID_00000121261024784711705050000015510380398895899020_" points="1773,543 1772,543 1773,542 							"/>
						</defs>
						<clipPath id="SVGID_00000126288554661505772180000001705869581246581432_">
							<use xlink:href="#SVGID_00000173153240401510800950000009281806019230876092_"  style="overflow:visible;"/>
						</clipPath>
						
							<clipPath id="SVGID_00000069385113384484795080000010147675581256899509_" style="clip-path:url(#SVGID_00000126288554661505772180000001705869581246581432_);">
							<use xlink:href="#SVGID_00000121261024784711705050000015510380398895899020_"  style="overflow:visible;"/>
						</clipPath>
						<g style="clip-path:url(#SVGID_00000069385113384484795080000010147675581256899509_);enable-background:new    ;">
							
								<image style="overflow:visible;" width="87" height="128" id="t" xlink:href="93947577.png"  transform="matrix(1 0 0 1 1730.5 480)">
							</image>
						</g>
					</g>
				</g>
				<g>
					<g>
						<defs>
							<polygon id="SVGID_00000023266945455844501400000012294909043633179556_" points="1754,566 1755,566 1754,567 							"/>
						</defs>
						<defs>
							<polygon id="SVGID_00000082329045738564673830000006440572077675405747_" points="1752,564 1751,564 1752,563 							"/>
						</defs>
						<clipPath id="SVGID_00000175323050145199900380000005682236579376275343_">
							<use xlink:href="#SVGID_00000023266945455844501400000012294909043633179556_"  style="overflow:visible;"/>
						</clipPath>
						
							<clipPath id="SVGID_00000096060089536857850100000009049738851182810781_" style="clip-path:url(#SVGID_00000175323050145199900380000005682236579376275343_);">
							<use xlink:href="#SVGID_00000082329045738564673830000006440572077675405747_"  style="overflow:visible;"/>
						</clipPath>
						<g style="clip-path:url(#SVGID_00000096060089536857850100000009049738851182810781_);enable-background:new    ;">
							
								<image style="overflow:visible;" width="129" height="87" id="i" xlink:href="93947588.png"  transform="matrix(1 0 0 1 1688.5 521.5)">
							</image>
						</g>
					</g>
				</g>
			</g>
			<g>
				<g>
					<g>
						<defs>
							<polygon id="SVGID_00000137817969649270169090000017834286544904357263_" points="1779,559 1780,559 1779,560 							"/>
						</defs>
						<defs>
							<polygon id="SVGID_00000134936486592895318430000013475814774605852292_" points="1777,557 1776,557 1777,556 							"/>
						</defs>
						<clipPath id="SVGID_00000057118148607809368250000001689414543712526748_">
							<use xlink:href="#SVGID_00000137817969649270169090000017834286544904357263_"  style="overflow:visible;"/>
						</clipPath>
						
							<clipPath id="SVGID_00000045604828998310927890000014072744347662916027_" style="clip-path:url(#SVGID_00000057118148607809368250000001689414543712526748_);">
							<use xlink:href="#SVGID_00000134936486592895318430000013475814774605852292_"  style="overflow:visible;"/>
						</clipPath>
						<g style="clip-path:url(#SVGID_00000045604828998310927890000014072744347662916027_);enable-background:new    ;">
							
								<image style="overflow:visible;" width="80" height="101" id="k" xlink:href="9394758B.png"  transform="matrix(1 0 0 1 1738 507.5)">
							</image>
						</g>
					</g>
				</g>
				<g>
					<g>
						<defs>
							<polygon id="SVGID_00000025401606545849585210000008870046399993066116_" points="1768,569 1769,569 1768,570 							"/>
						</defs>
						<defs>
							<polygon id="SVGID_00000059312034391925918580000016811207252036707756_" points="1766,567 1765,567 1766,566 							"/>
						</defs>
						<clipPath id="SVGID_00000173147974500329806300000001985929991990632332_">
							<use xlink:href="#SVGID_00000025401606545849585210000008870046399993066116_"  style="overflow:visible;"/>
						</clipPath>
						
							<clipPath id="SVGID_00000167377973683485245720000013566632382472574609_" style="clip-path:url(#SVGID_00000173147974500329806300000001985929991990632332_);">
							<use xlink:href="#SVGID_00000059312034391925918580000016811207252036707756_"  style="overflow:visible;"/>
						</clipPath>
						<g style="clip-path:url(#SVGID_00000167377973683485245720000013566632382472574609_);enable-background:new    ;">
							
								<image style="overflow:visible;" width="101" height="80" id="o" xlink:href="5474FAA7.png"  transform="matrix(1 0 0 1 1716.5 528)">
							</image>
						</g>
					</g>
				</g>
			</g>
		</g>
		<g>
			<g class="st7">
				<g>
					<g>
						<defs>
							<polygon id="SVGID_00000158721214869067925830000018234082795004138138_" points="1767,515 1768,515 1767,516 							"/>
						</defs>
						<defs>
							<polygon id="SVGID_00000155828869909441001070000018295206119178986375_" points="1765,513 1764,513 1765,512 							"/>
						</defs>
						<clipPath id="SVGID_00000090288060719857039550000013502934408501118125_">
							<use xlink:href="#SVGID_00000158721214869067925830000018234082795004138138_"  style="overflow:visible;"/>
						</clipPath>
						
							<clipPath id="SVGID_00000145736948741396856190000009469920727627769784_" style="clip-path:url(#SVGID_00000090288060719857039550000013502934408501118125_);">
							<use xlink:href="#SVGID_00000155828869909441001070000018295206119178986375_"  style="overflow:visible;"/>
						</clipPath>
						<g style="clip-path:url(#SVGID_00000145736948741396856190000009469920727627769784_);enable-background:new    ;">
							
								<image style="overflow:visible;" width="103" height="189" id="m_00000078727799420398778470000011481183522067162786_" xlink:href="5474FAA5.png"  transform="matrix(1 0 0 1 1714.5 419.5)">
							</image>
						</g>
					</g>
				</g>
				<g>
					<g>
						<defs>
							<polygon id="SVGID_00000146465696615145786720000011120483202384892332_" points="1724,558 1725,558 1724,559 							"/>
						</defs>
						<defs>
							<polygon id="SVGID_00000058582418185646130430000002273638861904761006_" points="1722,556 1721,556 1722,555 							"/>
						</defs>
						<clipPath id="SVGID_00000137816092759686572940000012073676900611137168_">
							<use xlink:href="#SVGID_00000146465696615145786720000011120483202384892332_"  style="overflow:visible;"/>
						</clipPath>
						
							<clipPath id="SVGID_00000160891111384710138240000004826350209530484925_" style="clip-path:url(#SVGID_00000137816092759686572940000012073676900611137168_);">
							<use xlink:href="#SVGID_00000058582418185646130430000002273638861904761006_"  style="overflow:visible;"/>
						</clipPath>
						<g style="clip-path:url(#SVGID_00000160891111384710138240000004826350209530484925_);enable-background:new    ;">
							
								<image style="overflow:visible;" width="189" height="102" id="j_00000039132489598019216880000003041257972817000360_" xlink:href="5474FAA3.png"  transform="matrix(1 0 0 1 1628.5 506)">
							</image>
						</g>
					</g>
				</g>
			</g>
			<g>
				<g>
					<g>
						<defs>
							<polygon id="SVGID_00000006694760593549561300000006250424867133299842_" points="1775,545 1776,545 1775,546 							"/>
						</defs>
						<defs>
							<polygon id="SVGID_00000034047619111853736610000013796252083691208126_" points="1773,543 1772,543 1773,542 							"/>
						</defs>
						<clipPath id="SVGID_00000172436812897006342670000010517940034886147207_">
							<use xlink:href="#SVGID_00000006694760593549561300000006250424867133299842_"  style="overflow:visible;"/>
						</clipPath>
						
							<clipPath id="SVGID_00000109720739192598911110000007843747445376529814_" style="clip-path:url(#SVGID_00000172436812897006342670000010517940034886147207_);">
							<use xlink:href="#SVGID_00000034047619111853736610000013796252083691208126_"  style="overflow:visible;"/>
						</clipPath>
						<g style="clip-path:url(#SVGID_00000109720739192598911110000007843747445376529814_);enable-background:new    ;">
							
								<image style="overflow:visible;" width="87" height="128" id="t_00000098215542518322163550000002584175083511858593_" xlink:href="5474FABD.png"  transform="matrix(1 0 0 1 1730.5 480)">
							</image>
						</g>
					</g>
				</g>
				<g>
					<g>
						<defs>
							<polygon id="SVGID_00000173128366965420395280000003116229760595308181_" points="1754,566 1755,566 1754,567 							"/>
						</defs>
						<defs>
							<polygon id="SVGID_00000113315034326219401570000010555964320261707150_" points="1752,564 1751,564 1752,563 							"/>
						</defs>
						<clipPath id="SVGID_00000151540807620439914250000004575915964531356322_">
							<use xlink:href="#SVGID_00000173128366965420395280000003116229760595308181_"  style="overflow:visible;"/>
						</clipPath>
						
							<clipPath id="SVGID_00000059994663624687880120000018142623755424481408_" style="clip-path:url(#SVGID_00000151540807620439914250000004575915964531356322_);">
							<use xlink:href="#SVGID_00000113315034326219401570000010555964320261707150_"  style="overflow:visible;"/>
						</clipPath>
						<g style="clip-path:url(#SVGID_00000059994663624687880120000018142623755424481408_);enable-background:new    ;">
							
								<image style="overflow:visible;" width="129" height="87" id="i_00000125580766427778862040000011589023943037494456_" xlink:href="5474FABF.png"  transform="matrix(1 0 0 1 1688.5 521.5)">
							</image>
						</g>
					</g>
				</g>
			</g>
			<g>
				<g>
					<g>
						<defs>
							<polygon id="SVGID_00000061436878200321034710000015938284128620463793_" points="1779,559 1780,559 1779,560 							"/>
						</defs>
						<defs>
							<polygon id="SVGID_00000137812837457688806970000012814765949230259880_" points="1777,557 1776,557 1777,556 							"/>
						</defs>
						<clipPath id="SVGID_00000137126555127753483400000014931672232464492216_">
							<use xlink:href="#SVGID_00000061436878200321034710000015938284128620463793_"  style="overflow:visible;"/>
						</clipPath>
						
							<clipPath id="SVGID_00000086676801050610972770000017097116898161857157_" style="clip-path:url(#SVGID_00000137126555127753483400000014931672232464492216_);">
							<use xlink:href="#SVGID_00000137812837457688806970000012814765949230259880_"  style="overflow:visible;"/>
						</clipPath>
						<g style="clip-path:url(#SVGID_00000086676801050610972770000017097116898161857157_);enable-background:new    ;">
							
								<image style="overflow:visible;" width="80" height="101" id="k_00000102537639310981184680000008390527160220825277_" xlink:href="5474FAA2.png"  transform="matrix(1 0 0 1 1738 507.5)">
							</image>
						</g>
					</g>
				</g>
				<g>
					<g>
						<defs>
							<polygon id="SVGID_00000024687918975878585480000017062758620660051883_" points="1768,569 1769,569 1768,570 							"/>
						</defs>
						<defs>
							<polygon id="SVGID_00000034778888544706196530000010886710522800017075_" points="1766,567 1765,567 1766,566 							"/>
						</defs>
						<clipPath id="SVGID_00000141451565567808578200000005303978559025938062_">
							<use xlink:href="#SVGID_00000024687918975878585480000017062758620660051883_"  style="overflow:visible;"/>
						</clipPath>
						
							<clipPath id="SVGID_00000085946038223775774330000014269253449430289793_" style="clip-path:url(#SVGID_00000141451565567808578200000005303978559025938062_);">
							<use xlink:href="#SVGID_00000034778888544706196530000010886710522800017075_"  style="overflow:visible;"/>
						</clipPath>
						<g style="clip-path:url(#SVGID_00000085946038223775774330000014269253449430289793_);enable-background:new    ;">
							
								<image style="overflow:visible;" width="101" height="80" id="o_00000152249236905602253480000017285812541439681667_" xlink:href="5474FAA1.png"  transform="matrix(1 0 0 1 1716.5 528)">
							</image>
						</g>
					</g>
				</g>
			</g>
		</g>
	</g>
	<g>
		<g>
			<g class="st7">
				<g>
					<g>
						<defs>
							<polygon id="SVGID_00000019640793187235412330000003375668567868721030_" points="1354,944 1355,944 1354,945 							"/>
						</defs>
						<defs>
							<polygon id="SVGID_00000116920698114745017910000017921822896745546658_" points="1352,942 1351,942 1352,941 							"/>
						</defs>
						<clipPath id="SVGID_00000074441510466106206220000002543876787513281443_">
							<use xlink:href="#SVGID_00000019640793187235412330000003375668567868721030_"  style="overflow:visible;"/>
						</clipPath>
						
							<clipPath id="SVGID_00000075139240536830435350000003419971300622154175_" style="clip-path:url(#SVGID_00000074441510466106206220000002543876787513281443_);">
							<use xlink:href="#SVGID_00000116920698114745017910000017921822896745546658_"  style="overflow:visible;"/>
						</clipPath>
						<g style="clip-path:url(#SVGID_00000075139240536830435350000003419971300622154175_);enable-background:new    ;">
							
								<image style="overflow:visible;" width="103" height="188" id="l" xlink:href="5474FAA6.png"  transform="matrix(1 0 0 1 1301.5 849)">
							</image>
						</g>
					</g>
				</g>
				<g>
					<g>
						<defs>
							<polygon id="SVGID_00000082369308863531610970000003791354794962074547_" points="1311,987 1312,987 1311,988 							"/>
						</defs>
						<defs>
							<polygon id="SVGID_00000090272311201018541490000003221226630597838233_" points="1309,985 1308,985 1309,984 							"/>
						</defs>
						<clipPath id="SVGID_00000098923688889991785720000005313410293279503036_">
							<use xlink:href="#SVGID_00000082369308863531610970000003791354794962074547_"  style="overflow:visible;"/>
						</clipPath>
						
							<clipPath id="SVGID_00000151533419822274828800000003647236179179700667_" style="clip-path:url(#SVGID_00000098923688889991785720000005313410293279503036_);">
							<use xlink:href="#SVGID_00000090272311201018541490000003221226630597838233_"  style="overflow:visible;"/>
						</clipPath>
						<g style="clip-path:url(#SVGID_00000151533419822274828800000003647236179179700667_);enable-background:new    ;">
							
								<image style="overflow:visible;" width="189" height="102" id="p" xlink:href="5474FAA0.png"  transform="matrix(1 0 0 1 1215.5 935)">
							</image>
						</g>
					</g>
				</g>
			</g>
			<g>
				<g>
					<g>
						<defs>
							<polygon id="SVGID_00000064352556182618247190000012856589123479404680_" points="1362,974 1363,974 1362,975 							"/>
						</defs>
						<defs>
							<polygon id="SVGID_00000076573262300724750060000006871546828644081076_" points="1360,972 1359,972 1360,971 							"/>
						</defs>
						<clipPath id="SVGID_00000001646254721092590560000007697023703659232646_">
							<use xlink:href="#SVGID_00000064352556182618247190000012856589123479404680_"  style="overflow:visible;"/>
						</clipPath>
						
							<clipPath id="SVGID_00000134213166823322095280000007707978579004966072_" style="clip-path:url(#SVGID_00000001646254721092590560000007697023703659232646_);">
							<use xlink:href="#SVGID_00000076573262300724750060000006871546828644081076_"  style="overflow:visible;"/>
						</clipPath>
						<g style="clip-path:url(#SVGID_00000134213166823322095280000007707978579004966072_);enable-background:new    ;">
							
								<image style="overflow:visible;" width="87" height="128" id="n" xlink:href="5474FAAE.png"  transform="matrix(1 0 0 1 1317.5 909)">
							</image>
						</g>
					</g>
				</g>
				<g>
					<g>
						<defs>
							<polygon id="SVGID_00000158709247612698099180000000343325734845981330_" points="1341,994 1342,994 1341,995 							"/>
						</defs>
						<defs>
							<polygon id="SVGID_00000042010304937488596730000009579574031207226781_" points="1339,992 1338,992 1339,991 							"/>
						</defs>
						<clipPath id="SVGID_00000015347175941608687640000016226475049583477923_">
							<use xlink:href="#SVGID_00000158709247612698099180000000343325734845981330_"  style="overflow:visible;"/>
						</clipPath>
						
							<clipPath id="SVGID_00000111173467064531364400000005693593566606013111_" style="clip-path:url(#SVGID_00000015347175941608687640000016226475049583477923_);">
							<use xlink:href="#SVGID_00000042010304937488596730000009579574031207226781_"  style="overflow:visible;"/>
						</clipPath>
						<g style="clip-path:url(#SVGID_00000111173467064531364400000005693593566606013111_);enable-background:new    ;">
							
								<image style="overflow:visible;" width="129" height="88" id="q" xlink:href="5474FAC6.png"  transform="matrix(1 0 0 1 1275.5 949)">
							</image>
						</g>
					</g>
				</g>
			</g>
			<g>
				<g>
					<g>
						<defs>
							<polygon id="SVGID_00000136386161194322922450000004714447936433558199_" points="1366,987 1367,987 1366,988 							"/>
						</defs>
						<defs>
							<polygon id="SVGID_00000030466520688156491010000015784015046484940942_" points="1364,985 1363,985 1364,984 							"/>
						</defs>
						<clipPath id="SVGID_00000182501846263648591910000009900311630099434667_">
							<use xlink:href="#SVGID_00000136386161194322922450000004714447936433558199_"  style="overflow:visible;"/>
						</clipPath>
						
							<clipPath id="SVGID_00000070824260419665617230000010076946663577224601_" style="clip-path:url(#SVGID_00000182501846263648591910000009900311630099434667_);">
							<use xlink:href="#SVGID_00000030466520688156491010000015784015046484940942_"  style="overflow:visible;"/>
						</clipPath>
						<g style="clip-path:url(#SVGID_00000070824260419665617230000010076946663577224601_);enable-background:new    ;">
							
								<image style="overflow:visible;" width="80" height="102" id="s" xlink:href="5474FAC5.png"  transform="matrix(1 0 0 1 1325 935)">
							</image>
						</g>
					</g>
				</g>
				<g>
					<g>
						<defs>
							<polygon id="SVGID_00000109014902638013893260000014710175314545413782_" points="1355,998 1356,998 1355,999 							"/>
						</defs>
						<defs>
							<polygon id="SVGID_00000109720192200411827270000004839758622900507311_" points="1353,996 1352,996 1353,995 							"/>
						</defs>
						<clipPath id="SVGID_00000111896173823404088270000011285710873639898804_">
							<use xlink:href="#SVGID_00000109014902638013893260000014710175314545413782_"  style="overflow:visible;"/>
						</clipPath>
						
							<clipPath id="SVGID_00000056396900453573702960000001973065240934341786_" style="clip-path:url(#SVGID_00000111896173823404088270000011285710873639898804_);">
							<use xlink:href="#SVGID_00000109720192200411827270000004839758622900507311_"  style="overflow:visible;"/>
						</clipPath>
						<g style="clip-path:url(#SVGID_00000056396900453573702960000001973065240934341786_);enable-background:new    ;">
							
								<image style="overflow:visible;" width="101" height="80" id="r" xlink:href="5474FAC2.png"  transform="matrix(1 0 0 1 1303.5 957)">
							</image>
						</g>
					</g>
				</g>
			</g>
		</g>
		<g>
			<g class="st7">
				<g>
					<g>
						<defs>
							<polygon id="SVGID_00000047767723400370367010000010505217135141921170_" points="1354,944 1355,944 1354,945 							"/>
						</defs>
						<defs>
							<polygon id="SVGID_00000156545284943708957750000009998491241943126712_" points="1352,942 1351,942 1352,941 							"/>
						</defs>
						<clipPath id="SVGID_00000098904479855229323620000008252331221786521479_">
							<use xlink:href="#SVGID_00000047767723400370367010000010505217135141921170_"  style="overflow:visible;"/>
						</clipPath>
						
							<clipPath id="SVGID_00000067915071023643106780000005104631646322689430_" style="clip-path:url(#SVGID_00000098904479855229323620000008252331221786521479_);">
							<use xlink:href="#SVGID_00000156545284943708957750000009998491241943126712_"  style="overflow:visible;"/>
						</clipPath>
						<g style="clip-path:url(#SVGID_00000067915071023643106780000005104631646322689430_);enable-background:new    ;">
							
								<image style="overflow:visible;" width="103" height="188" id="l_00000041264684584500704600000008716841440596627633_" xlink:href="5474FACD.png"  transform="matrix(1 0 0 1 1301.5 849)">
							</image>
						</g>
					</g>
				</g>
				<g>
					<g>
						<defs>
							<polygon id="SVGID_00000139272291716581785250000010393009890973938330_" points="1311,987 1312,987 1311,988 							"/>
						</defs>
						<defs>
							<polygon id="SVGID_00000068641862545103238710000016954200739000886419_" points="1309,985 1308,985 1309,984 							"/>
						</defs>
						<clipPath id="SVGID_00000048460114691534817730000013369056436756646793_">
							<use xlink:href="#SVGID_00000139272291716581785250000010393009890973938330_"  style="overflow:visible;"/>
						</clipPath>
						
							<clipPath id="SVGID_00000143595806034791238170000012533417456018009755_" style="clip-path:url(#SVGID_00000048460114691534817730000013369056436756646793_);">
							<use xlink:href="#SVGID_00000068641862545103238710000016954200739000886419_"  style="overflow:visible;"/>
						</clipPath>
						<g style="clip-path:url(#SVGID_00000143595806034791238170000012533417456018009755_);enable-background:new    ;">
							
								<image style="overflow:visible;" width="189" height="102" id="p_00000150100550642909512230000009457100066094155403_" xlink:href="5474FACE.png"  transform="matrix(1 0 0 1 1215.5 935)">
							</image>
						</g>
					</g>
				</g>
			</g>
			<g>
				<g>
					<g>
						<defs>
							<polygon id="SVGID_00000150065059523841250050000003528601657335356053_" points="1362,974 1363,974 1362,975 							"/>
						</defs>
						<defs>
							<polygon id="SVGID_00000132789119756867569010000009935768389085952130_" points="1360,972 1359,972 1360,971 							"/>
						</defs>
						<clipPath id="SVGID_00000135663842964618015660000002006045357945634700_">
							<use xlink:href="#SVGID_00000150065059523841250050000003528601657335356053_"  style="overflow:visible;"/>
						</clipPath>
						
							<clipPath id="SVGID_00000092438361652646527070000005105173737458598806_" style="clip-path:url(#SVGID_00000135663842964618015660000002006045357945634700_);">
							<use xlink:href="#SVGID_00000132789119756867569010000009935768389085952130_"  style="overflow:visible;"/>
						</clipPath>
						<g style="clip-path:url(#SVGID_00000092438361652646527070000005105173737458598806_);enable-background:new    ;">
							
								<image style="overflow:visible;" width="87" height="128" id="n_00000050651709424200388880000016794471325455455653_" xlink:href="5474FACC.png"  transform="matrix(1 0 0 1 1317.5 909)">
							</image>
						</g>
					</g>
				</g>
				<g>
					<g>
						<defs>
							<polygon id="SVGID_00000101786901267900468270000014308845435094958516_" points="1341,994 1342,994 1341,995 							"/>
						</defs>
						<defs>
							<polygon id="SVGID_00000011751241292912172910000001914394129437243279_" points="1339,992 1338,992 1339,991 							"/>
						</defs>
						<clipPath id="SVGID_00000168795402735160710130000014799688579348434619_">
							<use xlink:href="#SVGID_00000101786901267900468270000014308845435094958516_"  style="overflow:visible;"/>
						</clipPath>
						
							<clipPath id="SVGID_00000051380651435357818750000001939167809855084164_" style="clip-path:url(#SVGID_00000168795402735160710130000014799688579348434619_);">
							<use xlink:href="#SVGID_00000011751241292912172910000001914394129437243279_"  style="overflow:visible;"/>
						</clipPath>
						<g style="clip-path:url(#SVGID_00000051380651435357818750000001939167809855084164_);enable-background:new    ;">
							
								<image style="overflow:visible;" width="129" height="88" id="q_00000110469609597504758730000017948540821070950290_" xlink:href="5474FAC3.png"  transform="matrix(1 0 0 1 1275.5 949)">
							</image>
						</g>
					</g>
				</g>
			</g>
			<g>
				<g>
					<g>
						<defs>
							<polygon id="SVGID_00000128461405938165060930000006151767984504968869_" points="1366,987 1367,987 1366,988 							"/>
						</defs>
						<defs>
							<polygon id="SVGID_00000051358920356300168300000009950919151023902901_" points="1364,985 1363,985 1364,984 							"/>
						</defs>
						<clipPath id="SVGID_00000087396979104544030780000017509358532928068994_">
							<use xlink:href="#SVGID_00000128461405938165060930000006151767984504968869_"  style="overflow:visible;"/>
						</clipPath>
						
							<clipPath id="SVGID_00000135669080938994297750000008788888770744216498_" style="clip-path:url(#SVGID_00000087396979104544030780000017509358532928068994_);">
							<use xlink:href="#SVGID_00000051358920356300168300000009950919151023902901_"  style="overflow:visible;"/>
						</clipPath>
						<g style="clip-path:url(#SVGID_00000135669080938994297750000008788888770744216498_);enable-background:new    ;">
							
								<image style="overflow:visible;" width="80" height="102" id="s_00000116206843623523551570000004737366567487024002_" xlink:href="5474FAC4.png"  transform="matrix(1 0 0 1 1325 935)">
							</image>
						</g>
					</g>
				</g>
				<g>
					<g>
						<defs>
							<polygon id="SVGID_00000082339749765847920300000004414017562464679585_" points="1355,998 1356,998 1355,999 							"/>
						</defs>
						<defs>
							<polygon id="SVGID_00000116952725440144973940000012940480373765044143_" points="1353,996 1352,996 1353,995 							"/>
						</defs>
						<clipPath id="SVGID_00000107585312945953048490000001111196095879595911_">
							<use xlink:href="#SVGID_00000082339749765847920300000004414017562464679585_"  style="overflow:visible;"/>
						</clipPath>
						
							<clipPath id="SVGID_00000026121642784058848490000004709063208420927378_" style="clip-path:url(#SVGID_00000107585312945953048490000001111196095879595911_);">
							<use xlink:href="#SVGID_00000116952725440144973940000012940480373765044143_"  style="overflow:visible;"/>
						</clipPath>
						<g style="clip-path:url(#SVGID_00000026121642784058848490000004709063208420927378_);enable-background:new    ;">
							
								<image style="overflow:visible;" width="101" height="80" id="r_00000174597884720460762210000000453846608810179742_" xlink:href="5474FAC7.png"  transform="matrix(1 0 0 1 1303.5 957)">
							</image>
						</g>
					</g>
				</g>
			</g>
		</g>
	</g>
</g>
<g>
	<g class="st32">
		<path class="st33" d="M512.9,1726.7c0-18.3-2.6-32.2-7.9-41.9c-5.3-9.6-16.6-14.4-33.9-14.4c-15.9,0-26.5,4.6-31.8,13.7
			c-5.3,9.1-7.9,23.3-7.9,42.6c0,13,0,29.2,0,48.7s-0.1,42.9-0.4,70.4c-0.2,27.4-0.4,59.4-0.4,96c0,36.6,0,78.2,0,124.8
			c0,14.4-0.1,28.1-0.4,41.1c-0.2,13,0.6,24.3,2.5,33.9c1.9,9.6,5.6,17.2,11.2,22.7c5.5,5.5,14.5,8.3,27.1,8.3
			c15.4,0,26.2-3.2,32.5-9.7c6.2-6.5,9.4-19.6,9.4-39.3v-78.7h54.8v80.1c0,8.2-1.9,16.6-5.8,25.3c-3.9,8.7-9.7,16.6-17.7,23.8
			c-7.9,7.2-17.8,13.1-29.6,17.7c-11.8,4.6-25.6,6.9-41.5,6.9c-22.6,0-40.9-4.1-54.8-12.3c-14-8.2-24.8-19.7-32.5-34.6
			c-4.8-9.6-7.6-22.2-8.3-37.9c-0.7-15.6-1.1-32.8-1.1-51.6v-230.9c0-9.6-0.1-20.8-0.4-33.6c-0.2-12.7-0.4-25.3-0.4-37.5
			c0-12.3,0.4-23.6,1.1-33.9c0.7-10.3,1.8-18.2,3.2-23.5c5.8-19.2,16.7-33.8,32.8-43.7c16.1-9.9,35.5-14.8,58.1-14.8
			c16.3,0,30.7,2.4,42.9,7.2c12.3,4.8,22.4,11.1,30.3,18.8c7.9,7.7,13.8,16.5,17.7,26.3c3.8,9.9,5.8,19.8,5.8,29.9v57.7h-54.8
			V1726.7z"/>
		<path class="st33" d="M900.4,1707.9c1.4,5.3,2.6,12.8,3.6,22.4c1,9.6,1.7,20.3,2.2,32.1c0.5,11.8,0.8,23.8,1.1,36.1
			c0.2,12.3,0.4,23.2,0.4,32.8v264.8c0,12-0.4,23-1.1,32.8c-0.7,9.9-2.8,18.2-6.1,24.9c-7.7,14.9-19.1,26.1-34.3,33.6
			c-15.2,7.5-33.1,11.2-53.8,11.2c-20.2,0-37.9-3.7-53-11.2c-15.2-7.5-26.6-18.6-34.3-33.6c-3.4-6.7-5.4-15-6.1-24.9
			c-0.7-9.9-1.1-20.8-1.1-32.8v-264.8c0-9.6,0.1-20.6,0.4-32.8c0.2-12.3,0.6-24.3,1.1-36.1c0.5-11.8,1.2-22.5,2.2-32.1
			c1-9.6,2.2-17.1,3.6-22.4c5.8-19.2,16.2-34.6,31.4-46.2c15.2-11.5,34-17.3,56.6-17.3c21.6,0,40.2,5.8,55.6,17.3
			C884.1,1673.3,894.6,1688.7,900.4,1707.9z M772,1733.9c0,61.6-0.1,123.3-0.4,185.1c-0.2,61.8-0.4,125-0.4,189.4
			c0,9.6,0.4,18.3,1.1,26c0.7,7.7,2.5,14.4,5.4,20.2c2.9,5.8,7.1,10.2,12.6,13.3c5.5,3.1,12.9,4.7,22,4.7h0.7
			c10.1,0,17.9-1.8,23.5-5.4c5.5-3.6,9.6-9.5,12.3-17.7c2.6-8.2,4.1-19.1,4.3-32.8c0.2-13.7,0.4-30.4,0.4-50.2V1736
			c0-19.7-2.2-35.6-6.5-47.6c-4.3-12-15.6-18-33.9-18h-0.7c-9.1,0-16.4,1.6-21.6,4.7c-5.3,3.1-9.4,7.5-12.3,13
			c-2.9,5.5-4.7,12.3-5.4,20.2S772,1724.7,772,1733.9z"/>
		<path class="st33" d="M1110.4,1651.6l59.9,373.1l48.4-373.1h28.9l-71.4,539.1H1135l-77.9-539.1H1110.4z"/>
		<path class="st33" d="M1508.8,1650.9l67.1,540.5h-50.5l-12.3-99.6h-86.6l-14.4,99.6h-29.6l59.9-540.5H1508.8z M1464,1731.7
			l-36.1,332h80.8l-39.7-332H1464z"/>
		<path class="st33" d="M1700.7,1651.6h56.3l0.7,510.2h88v28.9h-144.3L1700.7,1651.6z"/>
		<path class="st33" d="M1969.9,1651.6h145.8v28.1h-89.5V1889h83v27.4h-83l0.7,246.8h88v27.4h-144.3L1969.9,1651.6z"/>
		<path class="st33" d="M2443.3,1651.6v539.1h-27.4l-137.1-386.8v386.8h-28.1v-539.1h28.1l136.4,383.2v-383.2H2443.3z"/>
		<path class="st33" d="M2579.7,1651.6h192v28.1h-68.6v510.9h-55.6v-510.9h-67.8V1651.6z"/>
	</g>
	<g class="st32">
		<path class="st33" d="M453.3,1383.3c0,15.4-9.4,23.1-28.1,23.1h-16.9v90.8h-18.3l0.2-178.2h34.5c3.7,0,7.2,0.4,10.7,1.1
			c3.5,0.7,6.6,2,9.2,3.8c2.6,1.8,4.7,4.4,6.3,7.6c1.6,3.3,2.4,7.4,2.4,12.5V1383.3z M408.5,1397.1h16.4c2.5,0,4.5-0.7,6-2.1
			c1.4-1.4,2.5-3,3.1-4.8c0.6-1.9,1-4.2,1.2-6.9v-8.3c0-2.5,0-5.5,0.1-8.9c0.1-3.4,0.1-6.9,0.1-10.6c0-4,0-7.7,0-11.2
			c0-3.5-0.3-6.5-0.8-8.9c-0.6-2.5-1.5-4.4-3-5.8s-3.6-2.1-6.4-2.1h-16.7V1397.1z"/>
		<path class="st33" d="M560.5,1383.3c-0.3,12.9-8.7,20.6-25,23.1c0.6,2.2,1.5,5.2,2.7,8.9c1.2,3.7,2.5,7.9,3.9,12.5
			c1.4,4.6,2.9,9.5,4.5,14.8c1.6,5.2,3.2,10.4,4.8,15.5c3.7,12.1,7.5,25.1,11.7,39.1H545l-25.5-90.8h-1.9v12.2v78.6h-18.3l0.2-178.2
			h32.4c2.9,0,6,0.4,9.3,1.1c3.3,0.7,6.4,2,9.3,3.8c2.9,1.8,5.2,4.4,7.1,7.6c1.9,3.3,2.9,7.4,2.9,12.5V1383.3z M517.9,1397.1h14.3
			c2.5,0,4.5-0.7,6-2.1s2.5-3,3.1-4.8c0.6-1.9,1-4.2,1.2-6.9v-8.3c0-2.5,0-5.5,0.1-8.9c0.1-3.4,0.1-6.9,0.1-10.6c0-4,0-7.7,0-11.2
			c0-3.5-0.3-6.5-0.8-8.9c-0.6-2.5-1.5-4.4-3-5.8s-3.6-2.1-6.4-2.1h-14.5V1397.1z"/>
		<path class="st33" d="M670.8,1337.8c0.5,1.7,0.9,4.2,1.2,7.4c0.3,3.2,0.6,6.7,0.7,10.6c0.2,3.9,0.3,7.9,0.4,11.9
			c0.1,4,0.1,7.7,0.1,10.8v87.4c0,4-0.1,7.6-0.4,10.8c-0.2,3.3-0.9,6-2,8.2c-2.5,4.9-6.3,8.6-11.3,11.1s-10.9,3.7-17.8,3.7
			c-6.7,0-12.5-1.2-17.5-3.7s-8.8-6.2-11.3-11.1c-1.1-2.2-1.8-5-2-8.2c-0.2-3.3-0.4-6.9-0.4-10.8v-87.4c0-3.2,0-6.8,0.1-10.8
			c0.1-4.1,0.2-8,0.4-11.9c0.2-3.9,0.4-7.4,0.7-10.6c0.3-3.2,0.7-5.6,1.2-7.4c1.9-6.4,5.4-11.4,10.4-15.2s11.2-5.7,18.7-5.7
			c7.1,0,13.3,1.9,18.3,5.7C665.4,1326.3,668.9,1331.4,670.8,1337.8z M628.4,1346.4c0,20.3,0,40.7-0.1,61.1
			c-0.1,20.4-0.1,41.3-0.1,62.5c0,3.2,0.1,6,0.4,8.6c0.2,2.5,0.8,4.8,1.8,6.7s2.3,3.4,4.2,4.4c1.8,1,4.2,1.5,7.3,1.5h0.2
			c3.3,0,5.9-0.6,7.7-1.8c1.8-1.2,3.2-3.1,4.1-5.8c0.9-2.7,1.3-6.3,1.4-10.8c0.1-4.5,0.1-10,0.1-16.6v-109.1
			c0-6.5-0.7-11.8-2.1-15.7c-1.4-4-5.2-6-11.2-6h-0.2c-3,0-5.4,0.5-7.1,1.5c-1.7,1-3.1,2.5-4.1,4.3c-1,1.8-1.5,4.1-1.8,6.7
			C628.5,1340.5,628.4,1343.3,628.4,1346.4z"/>
		<path class="st33" d="M736.7,1463.2c-0.1,2.3-0.1,4.6-0.1,6.8c0,3.2,0.1,6,0.4,8.6c0.2,2.5,0.8,4.8,1.8,6.7c1,1.9,2.3,3.4,4.2,4.4
			c1.8,1,4.2,1.5,7.3,1.5h0.2c3.3,0,5.9-0.6,7.7-1.8c1.8-1.2,3.2-3.1,4.1-5.8c0.9-2.7,1.3-6.3,1.4-10.8c0.1-4.5,0.1-10,0.1-16.6
			v-137h17.9v0.5V1466c0,4-0.1,7.6-0.4,10.8c-0.2,3.3-0.9,6-2,8.2c-1.3,2.4-2.6,4.5-4.1,6.4c-1.4,1.9-3.2,3.5-5.4,4.6
			c-2.1,1.2-4.8,2.1-8,2.7c-3.2,0.6-7.2,1-12.2,1c-8.3,0-14.4-1.2-18.5-3.7c-4.1-2.5-7.3-6.2-9.9-11.1c-1.1-2.2-1.8-5-2-8.2
			c-0.2-3.3-0.4-6.9-0.4-10.8v-16.4v-0.5h17.9v7.1C736.8,1458.6,736.8,1460.9,736.7,1463.2z"/>
		<path class="st33" d="M831.4,1319.2h48.1v9.3H850v69.1h27.4v9.1H850l0.2,81.5h29.1v9.1h-47.7L831.4,1319.2z"/>
		<path class="st33" d="M968.2,1344c0-6-0.9-10.6-2.6-13.8c-1.8-3.2-5.5-4.8-11.2-4.8c-5.2,0-8.7,1.5-10.5,4.5
			c-1.8,3-2.6,7.7-2.6,14.1c0,4.3,0,9.6,0,16.1c0,6.4,0,14.2-0.1,23.2c-0.1,9.1-0.1,19.6-0.1,31.7c0,12.1,0,25.8,0,41.2
			c0,4.8,0,9.3-0.1,13.6c-0.1,4.3,0.2,8,0.8,11.2c0.6,3.2,1.9,5.7,3.7,7.5c1.8,1.8,4.8,2.7,8.9,2.7c5.1,0,8.7-1.1,10.7-3.2
			c2.1-2.1,3.1-6.5,3.1-13v-26h18.1v26.4c0,2.7-0.6,5.5-1.9,8.3c-1.3,2.9-3.2,5.5-5.8,7.9c-2.6,2.4-5.9,4.3-9.8,5.8
			c-3.9,1.5-8.5,2.3-13.7,2.3c-7.5,0-13.5-1.4-18.1-4.1c-4.6-2.7-8.2-6.5-10.7-11.4c-1.6-3.2-2.5-7.3-2.7-12.5
			c-0.2-5.2-0.4-10.8-0.4-17v-76.2c0-3.2,0-6.9-0.1-11.1c-0.1-4.2-0.1-8.3-0.1-12.4s0.1-7.8,0.4-11.2c0.2-3.4,0.6-6,1.1-7.7
			c1.9-6.4,5.5-11.2,10.8-14.4c5.3-3.3,11.7-4.9,19.2-4.9c5.4,0,10.1,0.8,14.2,2.4c4.1,1.6,7.4,3.7,10,6.2c2.6,2.5,4.6,5.4,5.8,8.7
			c1.3,3.3,1.9,6.6,1.9,9.9v19.1h-18.1V1344z"/>
		<path class="st33" d="M1032.5,1319.2h63.4v9.3h-22.6v168.7h-18.3v-168.7h-22.4V1319.2z"/>
	</g>
</g>
</svg>
