<?xml version="1.0" encoding="utf-8"?>
<!-- Generator: Adobe Illustrator 26.2.1, SVG Export Plug-In . SVG Version: 6.00 Build 0)  -->
<svg version="1.1" id="Layer_1" xmlns="http://www.w3.org/2000/svg" xmlns:xlink="http://www.w3.org/1999/xlink" x="0px" y="0px"
	 viewBox="0 0 717.7 516.9" style="enable-background:new 0 0 717.7 516.9;" xml:space="preserve">
<style type="text/css">
	.st0{fill:#63FFEE;}
	.st1{fill:#606060;}
	.st2{fill:#282828;}
	.st3{fill:#3F3D56;}
	.st4{fill:#212121;}
	.st5{fill:#A0616A;}
	.st6{fill:#2F2E41;}
</style>
<path class="st0" d="M120.4,496.1c-1.5,0.1-2.9-1.1-2.9-2.7c0-0.8,0.3-1.6,0.9-2.2l0.2-0.8c0-0.1-0.1-0.1-0.1-0.2
	c-1.6-3.8-6-5.6-9.9-4c-1.8,0.8-3.3,2.2-4,4.1c-2.3,5.5-5.2,11-5.9,16.8c-0.3,2.6-0.2,5.2,0.4,7.7c-5.3-11.7-8.1-24.3-8.1-37.1
	c0-3.2,0.2-6.4,0.5-9.6c0.3-2.6,0.7-5.2,1.2-7.8c2.9-14,9-27.2,17.9-38.3c4.3-2.4,7.8-6,10-10.4c0.8-1.6,1.4-3.3,1.7-5
	c-0.5,0.1-1.8-7.4-1.5-7.8c-0.7-1-1.9-1.5-2.6-2.5c-3.7-5-8.8-4.1-11.4,2.7c-5.7,2.9-5.7,7.6-2.2,12.2c2.2,2.9,2.5,6.8,4.5,9.9
	c-0.2,0.3-0.4,0.5-0.6,0.8c-3.7,4.7-6.8,9.7-9.5,15.1c0.6-6-0.1-12-2.3-17.6c-2.2-5.2-6.2-9.6-9.8-14.1c-4.3-5.4-13.1-3.1-13.8,3.8
	c0,0.1,0,0.1,0,0.2c0.5,0.3,1,0.6,1.6,1c1.7,1.2,2.2,3.5,1.1,5.3c-0.6,0.9-1.5,1.5-2.6,1.6l-0.1,0c0.2,1.9,0.5,3.8,1,5.7
	c-4.6,17.7,5.3,24.2,19.4,24.5c0.3,0.2,0.6,0.3,0.9,0.5c-2.7,7.6-4.4,15.5-5,23.5c-0.4,4.7-0.3,9.5,0.1,14.2l0-0.2
	c-1-5.3-3.8-10-8-13.4c-6.1-5-14.8-6.9-21.4-10.9c-2-1.3-4.7-0.7-6,1.3c-0.6,0.9-0.8,1.9-0.7,2.9c0,0.1,0,0.1,0,0.2
	c1,0.4,1.9,0.9,2.9,1.4c0.5,0.3,1,0.6,1.6,1c1.7,1.2,2.2,3.5,1.1,5.3c-0.6,0.9-1.5,1.5-2.6,1.6l-0.1,0c-0.1,0-0.1,0-0.2,0
	c1.7,4,4,7.7,7,10.9c2.9,15.5,15.2,16.9,28.3,12.4h0c1.4,6.3,3.5,12.4,6.2,18.2h22.3c0.1-0.2,0.2-0.5,0.2-0.8
	c-2.1,0.1-4.1,0-6.2-0.4c1.7-2,3.3-4.1,5-6.1c0,0,0.1-0.1,0.1-0.1c0.8-1,1.7-2.1,2.5-3.1l0,0C121.6,502.4,121.2,499.2,120.4,496.1
	L120.4,496.1L120.4,496.1z"/>
<path class="st1" d="M146.1,515.5h36c6.2-20.7,0-69.7,8.1-89.7c15.6-38.4,35.4-78.9,72.5-97.6c15.8-8,33.1-11.1,50.7-11
	c24.4,0.2,49.4,6.8,72.4,15.4c9.4,3.5,18.7,7.4,27.9,11.4c34.9,15,69.4,31.3,106.9,35.7c47.5,5.6,103.3-15.7,116.3-61.4
	c9.9-35-7.9-71.4-26.6-102.7c-18.7-31.3-39.6-64.8-36.2-101c0-0.1,0-0.3,0-0.4c1.3-13,9.1-22.4,19.9-28.4h-47.2
	c-0.6,33.8,18.9,63.6,36.5,93.1c18.7,31.3,36.5,67.6,26.6,102.7c-13,45.7-120.3-7.9-167.8-13.5c-13.4-1.6,7.9,4-4.9,0
	c-20-6.3-22.3,51.4-41.8,42.9c-12.1-5.3-24.3-10.5-36.6-15.2c-5.1-1.9-10.3-3.7-15.6-5.4c0,0,0,0,0,0
	c-35.4-11.2-74.1-15.6-106.8,0.6c-0.2,0.1-0.5,0.2-0.7,0.3c-37.1,18.7-57,59.2-72.5,97.6C150.4,420.9,152.4,482.1,146.1,515.5
	L146.1,515.5z"/>
<path class="st2" d="M359.3,514.5c-175.6,3.7-179.4-73.2-179.4-164.7s80.1-163,179.3-163s178,71.5,178,163S458.5,514.5,359.3,514.5z
	"/>
<path class="st3" d="M358.3,515.5c-175.6,3.7-179.4-73.2-179.4-164.7s80.7-165.9,179.9-165.9s179.9,74.4,179.9,165.9
	S457.5,515.5,358.3,515.5z M358.8,189.5c-96.5,0-173.3,72.4-175,161.3c-1.5,82.7,93.8,186,175,161.3c43.5-44.2,166.6-91.8,175-161.3
	C544.5,262.4,455.3,189.5,358.8,189.5L358.8,189.5z"/>
<path class="st4" d="M0,515.7c0,0.7,0.5,1.2,1.2,1.2c0,0,0,0,0,0h715.3c0.7,0,1.2-0.5,1.2-1.2s-0.5-1.2-1.2-1.2H1.2
	C0.5,514.5,0,515,0,515.7C0,515.7,0,515.7,0,515.7z"/>
<polygon class="st5" points="482,500.4 469.6,500.4 463.7,452.8 482,452.8 "/>
<path class="st6" d="M482.4,513.3l-38,0v-0.5c0-8.2,6.6-14.8,14.8-14.8h0l6.9-5.3l12.9,5.3l3.3,0L482.4,513.3L482.4,513.3z"/>
<path class="st0" d="M463.2,390c-14.1-13.7-30.3-25-48-33.6l-9,10.2l5.7-11.7C364,333,309,332.7,260.9,354l4.7,10.2l-7.2-9.1
	c-18.6,8.6-35.6,20.3-50.3,34.6c-1.5,1.4-2.4,3.3-2.6,5.4c-0.2,2.3,0.7,4.5,2.3,6.1c2.3,1.1,5.5,3.5,10.3,10.3c3.1,3,8,3.1,11.1,0.1
	c59.3-57.4,153.5-57.4,212.8,0c3.1,3,8,3,11.1-0.1c4.8-4.3,6-10.5,10.1-10.1c1.5-1.4,2.4-3.3,2.5-5.4
	C465.7,393.8,464.9,391.6,463.2,390z"/>
<polygon class="st5" points="369,404.8 356.7,404.8 350.8,357.2 369,357.2 "/>
<path class="st6" d="M369.5,417.7l-38,0v-0.5c0-8.2,6.6-14.8,14.8-14.8h0l6.9-5.3l12.9,5.3l3.3,0L369.5,417.7L369.5,417.7z"/>
<path class="st6" d="M496.1,229.4l-87.7,9.2l-21.5,21.3L352.6,271c-8.8,2.9-14.9,10.9-15.3,20.2c-0.9,20.9-2.7,55.6-4.5,55.2
	c-2.7-0.5,2.7,12.5,6.4,11.7s7.6,7.7,5,9.2s1.7,14.4,1.7,14.4l26.8-4.3c3.4-25.3,15.6-52,1.2-70.7c24.5-7.9,46.1-14.6,61.9-18.7
	l8.6-3.6l0,0l17.8,189.2l25.2,0.4c6.9-35.8,10.4-67.9,5-90.9c0,0,0.8-69,3.8-68.2s0.5-8.2,0.5-8.2s-2.6-7.7,0.6-10.8
	s1.2-21.8,1.2-21.8C503.7,256.6,502.1,242,496.1,229.4L496.1,229.4z"/>
<path class="st3" d="M506.5,190.8c0.9-3.9,1.7-7.8,2.6-11.7l0,0c2.4-10.9,4.9-21.8,7.3-32.7c3.2-14.3,6.4-29,3.7-43.4
	c-0.4-2.2-1-4.3-1.7-6.4c-4.1-11.8-13.2-22.1-25.2-24.2l-2-7.3l-26.9-3.3l-5.1,7c-10.9-0.9-17.4,10-25,19l-3,3c-2.2,2.7-2.6,13-4,16
	c-6.1,13.3,2.3,0.4,2,15c-0.3,15.2-3.3,29.9-3.6,45c0,1.6-3.5,2.9-4.1,5.7c-0.3,1.5,2.4,4.4,2,6.1c-0.4,1.5,1.4,7.4,1,8.9
	c-1.7,7-5.7,9.8-5.9,13.3c-0.1,1.3-0.3,2.7-0.6,4c-0.2,0.9-3.2-0.2-3.5,0.8c-0.5,1.6,1.7,5.2,1.1,6.8c-1.2,3-0.4,8.4-1.1,11.2
	c-3,11.7-1.8,7.1-8.3,17.3c16.5,5,23.6,21.7,40.6,24.7c0.8-2.5,1.5-4.9,2.3-7.4c2.2,0.1,4.5,0.3,6.8,0.4l0,0
	c0.1,2.2,0.3,4.3,0.4,6.5c17.2,1.1,34.4,1.2,51.7,0.3c-0.6-1.7-1-3.5-1.4-5.3c-0.9-5,1.1-10.4,1.3-15.3c0.2-3.7-1.6-6.8-1.5-10.7
	c0-0.7,4.1-1.3,4.1-2.1c-0.1-6.5-3.8-15.3-2.6-21.7C509.1,203.5,505,197.4,506.5,190.8L506.5,190.8L506.5,190.8L506.5,190.8z"/>
<path class="st0" d="M380.8,32.9c-4.7,0-8.6,3.8-8.6,8.6v51.8c0,4.7,3.8,8.6,8.6,8.6h16c4.7,0,8.6-3.8,8.6-8.6c2.6-26,1.6-40,0-51.8
	c0-4.7-3.8-8.6-8.6-8.6L380.8,32.9L380.8,32.9z"/>
<path class="st3" d="M378.8,32.9c-4.7,0-8.6,3.8-8.6,8.6c-0.9,20.3-1.6,39.8,0,51.8c0,4.7,3.8,8.6,8.6,8.6h16c4.7,0,8.6-3.8,8.6-8.6
	V41.5c0-4.7-3.8-8.6-8.6-8.6L378.8,32.9z"/>
<path class="st5" d="M420,108.2c0,0,15.1-0.6,7.4,5.9c-5,4.3-16.3,33.9-28.1,37.5c-5.5,1.7-11.3-1.4-13-6.9
	c-0.1-0.3-0.2-0.6-0.2-0.9l-10.6-49.6l13.9-2.1l8.5,39.2L420,108.2L420,108.2z"/>
<circle class="st5" cx="383.3" cy="88" r="9.8"/>
<path class="st3" d="M440.6,81.1L440.6,81.1c9,6.8,11.7,28.9,6,38.7c-10.8,18.6-32.1,32.9-33,30.9c-1.2-2.7-3.4,0.9-3.3,2.1
	s-4,0.8-3.6,2.1s-2.8,1.5-4.2,2.3c0,0-12.9,0.2-17-5.7s-4.6-14-4.6-14l-5-5.9l26.8-15.6l-2.2,10.6l13.3-15.5l2.8-6.2l4.5-2.3
	l1.5-4.7l4.2-1.9l16.4-19.1L440.6,81.1L440.6,81.1z"/>
<path class="st5" d="M514.5,263.3c4.2-2.8,5.4-8.5,2.6-12.7c-0.3-0.5-0.6-0.9-1-1.3l1.9-84.1l-16.6,2.6l1.2,81.6
	c-3.5,3.8-3.2,9.6,0.5,13.1C506.2,265.3,511,265.7,514.5,263.3L514.5,263.3z"/>
<path class="st3" d="M515.2,93.5c0,0-1.1,0.8,4.5,9.4c1.1,1.7,1.9,8.6,2.4,17.6c0.2,2.9,1.8,5,2,8.3c0.1,2.8-1.3,6.7-1.2,9.6
	c0,1.5,1.2,2.9,1.2,4.4c0,0.6-1.1,1.5-1.1,2.1c0,0.7,0,1.4,0,2.1c0.4,17.1,0.5,32.5,0.9,32.2c0.8-0.6-1.2,2.3-0.2,2.8
	s-0.9,2.9-0.4,4.1c0.6,1.5-0.1,3.2-0.6,4.7c-1.3,4.4-1.6,8.1-2.8,10.2c2.9,1.6,4.3,5,3.4,8.2l-23.4-4.2c-2.9-4.6-2.4-9.4-0.5-10.2
	l-0.6-14.9l-6.7-77l19.5-8.7L515.2,93.5L515.2,93.5z"/>
<path class="st3" d="M369.9,46.2c-0.3,0-0.6,0.2-0.6,0.4v2.9c0,0.2,0.3,0.4,0.6,0.4s0.6-0.2,0.6-0.4v-2.9
	C370.5,46.3,370.2,46.2,369.9,46.2z"/>
<path class="st3" d="M369.9,53.8c-0.3,0-0.6,0.2-0.6,0.4v5.5c0,0.2,0.3,0.4,0.6,0.4s0.6-0.2,0.6-0.4v-5.5
	C370.5,53.9,370.2,53.8,369.9,53.8z"/>
<path class="st3" d="M403.9,54.8c-0.4,0-0.6,0.4-0.6,0.7v11.6c-0.1,0.3,0.1,0.7,0.5,0.7s0.7-0.1,0.7-0.5c0-0.1,0-0.2,0-0.3V55.5
	C404.5,55.1,404.3,54.8,403.9,54.8z"/>
<path class="st3" d="M368.9,62.6c-0.3,0-0.6,0.2-0.6,0.4v5.5c0,0.2,0.3,0.4,0.6,0.4s0.6-0.2,0.6-0.4V63
	C369.5,62.8,369.2,62.6,368.9,62.6z"/>
<circle class="st5" cx="475.8" cy="34.1" r="25.1"/>
<path class="st6" d="M503.8,45.6c-2,3.9-3.8,6.4-7.2,8.6c-0.2-0.5-0.3-1-0.4-1.5c-0.4,0.8-0.7,1.6-1.1,2.4c-2.1,1.2,0.2-0.6-3.3,0.7
	l-3-5.1c-0.8-2.4,0.3-5,1.8-7.1c1.5-2.1,3.3-4,4.1-6.4c0.8-2.4,0.1-5.6-2.3-6.5c-2.3-0.9-4.9,0.8-7.4,0.5c-2.9-0.3-4.8-3.3-5-6.2
	c-0.2-2.9,1-5.6,2.2-8.3c-3.5,2.5-14.2,6.9-20.1,7.2c-0.2-1.8-1-3.5-2.4-4.7c0.2,1.7-0.2,3.3-1.1,4.7c-5.7-0.3-6.8,8-9.8,5
	c0.9-0.5-2.5-10.8-1.6-11.3c-0.7-1.9-1.4-3.9-2.1-5.8c1.3,0.3,2.6,0.7,4,1c0.1-0.7,0.3-1.4,0.6-2c0.9-0.5,1.9-1,3-1.3
	c0.3-0.1,0.7-0.2,1-0.3c0.5-0.1,1-0.2,1.6-0.3c-0.8-0.4-1.5-0.9-2.3-1.3c-0.1-0.1-0.2-0.1-0.3-0.2c1.1-0.7,2.2-1.4,3.4-2
	c4.9-2.6,10-5.2,15.5-5.5c3.6-0.2,7.1,0.8,10,2.9c2.5,1.8,5.6,2.7,8.6,2.6c1.5,0,3,0.3,4.3,1c-0.6,0.6-1.3,1.2-2,1.7
	c1.6,0,3.2,0.1,4.8,0.1c1.8,1.6,3.3,3.5,4.5,5.6C507.5,23.5,508.8,35.7,503.8,45.6L503.8,45.6z"/>
<path class="st0" d="M423.2,436.7c-0.4-2.5-2-4.7-4.3-5.9c-10.6-5.4-21.7-9.8-33.2-13L375,431.9l7.9-14.9
	c-29.4-7.9-60.2-8.3-89.8-1.3l4.1,11.4l-6.7-10.7c-13.3,3.3-26.2,8.2-38.4,14.5c-3.9,2-5.5,6.9-3.5,10.8c0.4,0.7,0.9,1.4,1.5,2
	c4.6,0.3,7.7,4.6,10.8,10.8c2.4,2.4,6,3,9.1,1.5c41.5-19.7,89.7-19.7,131.2,0c3,1.5,6.7,0.9,9.1-1.5c1.8-5,5.6-7.9,10.8-10.8
	C422.8,441.8,423.6,439.3,423.2,436.7z"/>
<path class="st0" d="M363.9,485.5c-2.4-0.4-4.7-0.7-7.1-1l-9.3,14.8l6.9-15.1c-11.3-1.2-22.7-1.3-34-0.4l7.1,15.4l-9.6-15.2
	c-3.7,0.3-7.3,0.8-10.9,1.4c-2.5,0.4-4.6,2.2-5.4,4.6c-0.8,2.4-0.2,5.1,1.7,7c3.9,3.8,8.1,9,15.1,15.1c1.4,1.4,3.3,2.1,5.3,2
	c3.9-0.3,7.8-0.4,11.8-0.4h0c3.9,0,7.9,0.1,11.8,0.4c2,0.1,3.9-0.6,5.3-2c7.2-6.2,10.8-11.8,15.1-15.1c1.8-1.8,2.5-4.5,1.7-7
	C368.5,487.6,366.4,485.8,363.9,485.5z"/>
</svg>
